<svg width="23" height="23" viewBox="0 0 23 23" fill="none" xmlns="http://www.w3.org/2000/svg">
<path d="M19.1611 3.74121C17.1152 1.69043 14.3906 0.5625 11.4951 0.5625C5.51855 0.5625 0.655273 5.42578 0.655273 11.4023C0.655273 13.3115 1.15332 15.1768 2.10059 16.8223L0.5625 22.4375L6.30957 20.9287C7.8916 21.793 9.67383 22.2471 11.4902 22.2471H11.4951C17.4668 22.2471 22.4375 17.3838 22.4375 11.4072C22.4375 8.51172 21.207 5.79199 19.1611 3.74121ZM11.4951 20.4209C9.87402 20.4209 8.28711 19.9863 6.90527 19.166L6.57812 18.9707L3.16992 19.8643L4.07812 16.5391L3.86328 16.1973C2.95996 14.7617 2.48633 13.1064 2.48633 11.4023C2.48633 6.43652 6.5293 2.39355 11.5 2.39355C13.9072 2.39355 16.168 3.33105 17.8672 5.03516C19.5664 6.73926 20.6113 9 20.6064 11.4072C20.6064 16.3779 16.4609 20.4209 11.4951 20.4209ZM16.4365 13.6729C16.168 13.5361 14.835 12.8818 14.5859 12.7939C14.3369 12.7012 14.1563 12.6572 13.9756 12.9307C13.7949 13.2041 13.2773 13.8096 13.1162 13.9951C12.96 14.1758 12.7988 14.2002 12.5303 14.0635C10.9385 13.2676 9.89355 12.6426 8.84375 10.8408C8.56543 10.3623 9.12207 10.3965 9.63965 9.36133C9.72754 9.18066 9.68359 9.02441 9.61523 8.8877C9.54688 8.75098 9.00488 7.41797 8.78027 6.87598C8.56055 6.34863 8.33594 6.42188 8.16992 6.41211C8.01367 6.40234 7.83301 6.40234 7.65234 6.40234C7.47168 6.40234 7.17871 6.4707 6.92969 6.73926C6.68066 7.0127 5.98242 7.66699 5.98242 9C5.98242 10.333 6.9541 11.6221 7.08594 11.8027C7.22266 11.9834 8.99512 14.7178 11.7148 15.8945C13.4336 16.6367 14.1074 16.7002 14.9668 16.5732C15.4893 16.4951 16.5684 15.9189 16.793 15.2842C17.0176 14.6494 17.0176 14.1074 16.9492 13.9951C16.8857 13.873 16.7051 13.8047 16.4365 13.6729Z" fill="white"/>
</svg>
