<svg width="22" height="20" viewBox="0 0 22 20" fill="none" xmlns="http://www.w3.org/2000/svg">
<path d="M19.84 2.61012C19.3292 2.09912 18.7228 1.69376 18.0554 1.4172C17.3879 1.14064 16.6725 0.998291 15.95 0.998291C15.2275 0.998291 14.5121 1.14064 13.8446 1.4172C13.1772 1.69376 12.5708 2.09912 12.06 2.61012L11 3.67012L9.94 2.61012C8.9083 1.57842 7.50903 0.998826 6.05 0.998826C4.59096 0.998826 3.19169 1.57842 2.16 2.61012C1.1283 3.64181 0.548706 5.04108 0.548706 6.50012C0.548706 7.95915 1.1283 9.35842 2.16 10.3901L3.22 11.4501L11 19.2301L18.78 11.4501L19.84 10.3901C20.351 9.87936 20.7563 9.27293 21.0329 8.60547C21.3095 7.93801 21.4518 7.2226 21.4518 6.50012C21.4518 5.77763 21.3095 5.06222 21.0329 4.39476C20.7563 3.7273 20.351 3.12087 19.84 2.61012Z" fill="white"/>
</svg>
