<svg width="0" height="0" class="hidden">
    <symbol fill="none" xmlns="http://www.w3.org/2000/svg" viewBox="0 0 20 20" id="phone">
        <path d="M18.3333 14.0999V16.5999C18.3343 16.832 18.2867 17.0617 18.1937 17.2744C18.1008 17.487 17.9644 17.6779 17.7934 17.8348C17.6224 17.9917 17.4205 18.1112 17.2006 18.1855C16.9808 18.2599 16.7478 18.2875 16.5167 18.2666C13.9523 17.988 11.4892 17.1117 9.32498 15.7083C7.31151 14.4288 5.60443 12.7217 4.32499 10.7083C2.91663 8.53426 2.04019 6.05908 1.76665 3.48325C1.74583 3.25281 1.77321 3.02055 1.84707 2.80127C1.92092 2.58199 2.03963 2.38049 2.19562 2.2096C2.35162 2.03871 2.54149 1.90218 2.75314 1.80869C2.9648 1.7152 3.1936 1.6668 3.42499 1.66658H5.92499C6.32941 1.6626 6.72148 1.80582 7.02812 2.06953C7.33476 2.33324 7.53505 2.69946 7.59165 3.09992C7.69717 3.89997 7.89286 4.68552 8.17499 5.44158C8.2871 5.73985 8.31137 6.06401 8.24491 6.37565C8.17844 6.68729 8.02404 6.97334 7.79998 7.19992L6.74165 8.25825C7.92795 10.3445 9.65536 12.072 11.7417 13.2583L12.8 12.1999C13.0266 11.9759 13.3126 11.8215 13.6243 11.755C13.9359 11.6885 14.26 11.7128 14.5583 11.8249C15.3144 12.107 16.0999 12.3027 16.9 12.4083C17.3048 12.4654 17.6745 12.6693 17.9388 12.9812C18.203 13.2931 18.3435 13.6912 18.3333 14.0999Z" stroke-width="2" stroke-linecap="round" stroke-linejoin="round"></path>
    </symbol>
    <symbol fill="none" xmlns="http://www.w3.org/2000/svg" viewBox="0 0 22 20" id="heart">
        <path d="M19.84 2.61012C19.3292 2.09912 18.7228 1.69376 18.0554 1.4172C17.3879 1.14064 16.6725 0.998291 15.95 0.998291C15.2275 0.998291 14.5121 1.14064 13.8446 1.4172C13.1772 1.69376 12.5708 2.09912 12.06 2.61012L11 3.67012L9.94 2.61012C8.9083 1.57842 7.50903 0.998826 6.05 0.998826C4.59096 0.998826 3.19169 1.57842 2.16 2.61012C1.1283 3.64181 0.548706 5.04108 0.548706 6.50012C0.548706 7.95915 1.1283 9.35842 2.16 10.3901L3.22 11.4501L11 19.2301L18.78 11.4501L19.84 10.3901C20.351 9.87936 20.7563 9.27293 21.0329 8.60547C21.3095 7.93801 21.4518 7.2226 21.4518 6.50012C21.4518 5.77763 21.3095 5.06222 21.0329 4.39476C20.7563 3.7273 20.351 3.12087 19.84 2.61012Z" fill="white"></path>
    </symbol>
    <symbol fill="none" xmlns="http://www.w3.org/2000/svg" viewBox="0 0 40 40" id="heroElement1">
        <path d="M40 40H0L40 0V40Z" fill="#B00000"></path>
    </symbol>
    <symbol fill="none" xmlns="http://www.w3.org/2000/svg" viewBox="0 0 40 40" id="heroElement2">
        <path d="M0 40H40L0 0V40Z" fill="#B00000"></path>
    </symbol>
    <symbol fill="none" xmlns="http://www.w3.org/2000/svg" viewBox="0 0 125 54" id="whyUsLiteSpeed">
        <path d="M34.2995 13.4392V36.0211C34.2995 36.2328 34.3954 36.4125 34.5178 36.431C35.2124 36.5297 35.9841 36.5297 36.7948 36.431C37.4565 36.3432 38.2637 36.1812 39.2606 35.934C39.2243 36.2792 39.2064 36.6519 39.2064 37.0545C39.2064 37.3971 39.2269 37.8136 39.2656 38.2646H31.4204V13.4437C31.5699 13.4662 31.7627 13.5067 32.0011 13.5624C32.3493 13.6646 32.7066 13.6671 32.9195 13.5697L33.6252 13.5643C33.8937 13.5015 34.1159 13.4578 34.2995 13.4392ZM43.7035 14.6741C43.285 14.7742 43.0062 14.7762 42.8052 14.6795H42.0995C41.8501 14.6211 41.6597 14.5838 41.5163 14.5601V38.2644H44.2475V14.5547C44.0903 14.5754 43.9115 14.6143 43.7035 14.6741ZM46.4086 14.5374C46.435 14.8738 46.4482 15.2102 46.4482 15.539C46.4482 15.9716 46.4357 16.3535 46.4125 16.6799H46.8686C48.161 16.3999 49.2462 16.2568 50.0783 16.2568C50.2116 16.2568 50.3187 16.4406 50.3187 16.6665V38.2646H52.9682V16.6665C52.9682 16.4404 53.0758 16.2568 53.2082 16.2568C53.8137 16.2568 54.6802 16.3522 55.7852 16.5393C56.0648 16.6083 56.3614 16.652 56.6706 16.672C56.6393 16.3444 56.6393 15.9689 56.6718 15.549C56.6377 15.2141 56.6393 14.874 56.678 14.5376H46.4086V14.5374ZM58.8516 14.5374V38.2646H66.334C66.2975 37.8372 66.2781 37.4466 66.2781 37.1238C66.2781 36.7544 66.2948 36.4085 66.3249 36.0918C65.8156 36.2246 65.2483 36.3306 64.6397 36.4019C63.9319 36.4995 62.957 36.5468 61.7403 36.5468C61.6081 36.5468 61.501 36.3623 61.501 36.1346V26.9645C61.501 26.7389 61.6081 26.5546 61.7403 26.5546H63.7426C64.4098 26.6213 64.9459 26.6886 65.483 26.7548L65.8794 26.8019C65.8678 26.7112 65.8548 26.6088 65.8403 26.5003L65.833 24.85C65.833 24.8036 65.8369 24.7585 65.8462 24.7187C65.8513 24.6869 65.8571 24.6537 65.8629 24.6232C65.1577 24.7731 64.5131 24.8361 63.7427 24.8361H61.7404C61.6082 24.8361 61.5011 24.6516 61.5011 24.4255V16.6665C61.5011 16.4404 61.6082 16.2568 61.7404 16.2568C63.2173 16.2568 64.7682 16.4213 66.353 16.7475C66.3031 16.3733 66.2781 16.0139 66.2781 15.6797C66.2781 15.2819 66.303 14.8984 66.3538 14.5374H58.8516ZM77.5986 30.9746C77.5412 28.0423 76.2261 25.4403 73.682 23.2602C71.7965 21.5962 70.8815 19.9791 70.8815 18.3221C70.8815 15.6499 71.795 14.1827 73.5241 14.0759C74.7006 14.0759 75.6057 15.1557 76.2187 17.2902C76.2828 16.9147 76.3724 16.4347 76.4885 15.831C76.6302 15.1916 76.7502 14.6552 76.8507 14.2121C75.9466 13.2895 74.8563 12.7747 73.6088 12.6846C70.4701 12.969 68.8869 15.4459 68.7782 20.2551C68.7782 23.4952 69.9768 26.0974 72.3416 27.9804C74.3185 29.5191 75.3198 31.2829 75.3198 33.2166C75.1944 35.9342 74.249 37.3577 72.5074 37.4648C70.7845 37.3622 69.7066 35.9728 69.2974 33.334H69.2668C69.1565 34.7679 68.9809 36.1839 68.7451 37.5458C69.7933 38.2255 70.8816 38.6168 71.982 38.7079C75.4579 38.7071 77.3769 35.8862 77.5986 30.9746ZM82.1747 27.5596C82.1332 27.5644 82.0728 27.5826 82.0225 27.6675C81.9787 27.7425 81.9532 27.8444 81.9532 27.9491V38.2644H79.2035V14.5335H84.157C86.9931 14.5335 88.3985 16.3906 88.4508 20.2064C88.4713 22.283 88.1379 23.9358 87.4611 25.1166C86.5293 26.743 84.8984 27.5674 82.6137 27.5674C82.4732 27.5674 82.3331 27.5639 82.1747 27.5596ZM82.1499 26.3634C82.2557 26.3898 82.3698 26.4039 82.4852 26.4039C82.8231 26.4039 83.213 26.2921 83.6425 26.0726C84.8903 25.461 85.5833 23.7226 85.6999 20.8797C85.5833 17.6747 84.8476 15.8918 83.4977 15.5808H82.1831C82.0567 15.5808 81.9532 15.7578 81.9532 15.9741V25.9769C81.9532 26.1711 82.0368 26.337 82.1499 26.3634ZM99.4497 14.5335V38.2644H106.945C106.909 37.8333 106.89 37.4359 106.89 37.1052C106.89 36.7292 106.905 36.3761 106.938 36.055C106.423 36.1903 105.852 36.2986 105.242 36.3702C104.528 36.4664 103.582 36.5124 102.348 36.5124C102.221 36.5124 102.118 36.3352 102.118 36.1214V26.962C102.118 26.7469 102.221 26.5699 102.348 26.5699H104.568C105.402 26.6561 106.161 26.7378 106.856 26.8192C106.844 26.7218 106.831 26.6124 106.813 26.4928L106.806 24.85C106.806 24.805 106.809 24.7624 106.818 24.7247C106.826 24.683 106.834 24.6418 106.842 24.6046C106.148 24.7453 105.384 24.8182 104.568 24.8182H102.348C102.221 24.8182 102.118 24.6418 102.118 24.4269V16.6779C102.118 16.4616 102.221 16.2859 102.348 16.2859C103.828 16.2859 105.381 16.4531 106.967 16.7802C106.915 16.3974 106.89 16.0326 106.89 15.6931C106.89 15.2851 106.915 14.8984 106.969 14.5337H99.4497V14.5335ZM113.434 38.2646H108.87V14.5335L114.74 14.5315C118.697 14.9932 120.727 18.6444 120.942 25.6725C120.676 33.5708 118.149 37.8076 113.434 38.2646ZM117.864 25.6943C117.864 19.1717 116.153 15.8613 112.783 15.8613H111.765C111.64 15.8613 111.537 16.0391 111.537 16.2553V36.5442C111.537 36.7583 111.64 36.9362 111.765 36.9362H112.665C114.387 36.9362 115.702 35.9722 116.572 34.076C117.428 32.2043 117.864 29.3849 117.864 25.6943ZM89.9854 14.5335V38.2644H97.4792C97.4435 37.8333 97.4232 37.4359 97.4232 37.1052C97.4232 36.7292 97.4397 36.3761 97.4721 36.055C96.9549 36.1903 96.3853 36.2986 95.7763 36.3702C95.0628 36.4664 94.1154 36.5124 92.881 36.5124C92.7557 36.5124 92.652 36.3352 92.652 36.1214V26.962C92.652 26.7469 92.7557 26.5699 92.881 26.5699H95.1023C95.9375 26.6561 96.6951 26.7378 97.3905 26.8192C97.3785 26.7218 97.3641 26.6124 97.3476 26.4928L97.3402 24.85C97.3402 24.805 97.3448 24.7624 97.3529 24.7247C97.3602 24.683 97.3676 24.6418 97.3734 24.6046C96.6826 24.7453 95.9196 24.8182 95.1023 24.8182H92.881C92.7557 24.8182 92.652 24.6418 92.652 24.4269V16.6779C92.652 16.4616 92.7557 16.2859 92.881 16.2859C94.3608 16.2859 95.9147 16.4531 97.5004 16.7802C97.4494 16.3974 97.4233 16.0326 97.4233 15.6931C97.4233 15.2851 97.4506 14.8984 97.5017 14.5337H89.9854V14.5335Z" fill="#002D73"></path>
        <path d="M26.2048 26.0324L19.3743 14.3329L16.4652 20.6591L19.6018 26.0322C19.8912 26.5285 19.8912 27.339 19.6018 27.8349L18.6946 29.3885C18.6946 29.3885 19.3064 30.9572 19.3345 31.0516C19.4756 31.5367 19.5097 32.6755 19.1091 33.195L11.975 42.5779C11.9734 45.7266 11.9709 52.2006 11.9738 52.2034C11.975 52.2041 26.205 27.8347 26.205 27.8347C26.4942 27.3385 26.4942 26.5287 26.2048 26.0324Z" fill="#3E8EDE"></path>
        <path d="M10.3403 27.5046C10.0519 27.011 10.0519 26.2012 10.3403 25.7048L11.2487 24.1485L10.6277 22.6197C10.3315 21.9013 10.4248 20.8799 10.8331 20.345L17.9685 10.9615L17.9734 1.34196L17.9693 1.33803L17.9657 1.32947L3.73798 25.7048C3.4484 26.2012 3.4484 27.011 3.73861 27.5069L10.5677 39.2066L13.4776 32.8804L10.3403 27.5046Z" fill="#002D73"></path>
        <path d="M21.5646 7.02789C21.699 7.02789 21.8299 7.16833 21.8901 7.37694C21.9986 7.76042 21.8419 8.10233 21.7557 8.2906L15.5035 21.8854C15.4401 22.0225 15.4348 22.3176 15.4931 22.4593C15.5268 22.5432 18.8685 30.8479 18.9834 31.13C19.1477 31.5352 19.1322 32.5788 18.8048 33.0039L8.75226 46.2245C8.61111 46.4099 8.50642 46.5107 8.35996 46.5131C8.23382 46.4986 8.10736 46.3562 8.05246 46.167C7.94236 45.7839 8.10736 45.4199 8.18653 45.2453L14.437 31.6564C14.5011 31.5094 14.5075 31.229 14.4498 31.0793L10.9607 22.4838C10.7078 21.8676 10.7863 20.9935 11.1358 20.5356L21.1902 7.31323C21.3413 7.11051 21.4499 7.02789 21.5646 7.02789ZM21.5646 6.98328C21.4439 6.98328 21.3306 7.0684 21.1741 7.27772L11.1199 20.4999C10.7587 20.9732 10.678 21.8726 10.9393 22.5093L14.4283 31.1046C14.4797 31.2381 14.4732 31.4987 14.4161 31.6296L8.16601 45.2179C8.08351 45.3999 7.91205 45.7796 8.02913 46.1868C8.08798 46.3901 8.22288 46.5421 8.35819 46.5577C8.51486 46.5553 8.62694 46.4452 8.76798 46.26L18.8206 33.0394C19.1682 32.5883 19.1694 31.5112 19.0049 31.1046C18.8887 30.8191 15.5145 22.434 15.5145 22.434C15.4628 22.3082 15.4677 22.0346 15.5239 21.9131L21.7761 8.31808C21.858 8.13927 22.0301 7.76935 21.9135 7.35731C21.8489 7.13407 21.7097 6.98328 21.5646 6.98328Z" fill="#3E8EDE"></path>
        <path d="M18.644 31.2629C18.725 31.4731 18.7981 32.269 18.5942 32.532L8.54024 45.7544C8.45556 45.8654 8.40139 45.9191 8.37722 45.9157C8.34253 45.9191 8.36764 45.8137 8.45993 45.6097L14.7095 32.0245C14.8676 31.6741 14.8783 31.0996 14.7332 30.742L11.2445 22.1411C11.2445 22.1413 18.5633 31.0518 18.644 31.2629Z" fill="#FFCE00"></path>
        <path d="M18.644 31.263L15.2084 22.797C15.0626 22.4381 15.0742 21.8623 15.2304 21.5207L21.481 7.92713C21.5739 7.72459 21.598 7.62341 21.5645 7.62341C21.5397 7.62341 21.4846 7.67302 21.4015 7.78616L11.3472 21.0069C11.1455 21.2728 11.0978 21.7846 11.2445 22.1413L18.644 31.263Z" fill="#FFDE6E"></path>
    </symbol>
    <symbol fill="none" xmlns="http://www.w3.org/2000/svg" viewBox="0 0 101 100" id="whyUsBlazing">
        <path d="M50.3999 100C78.0141 100 100.4 77.6142 100.4 50C100.4 22.3858 78.0141 0 50.3999 0C22.7857 0 0.399902 22.3858 0.399902 50C0.399902 77.6142 22.7857 100 50.3999 100Z" fill="#B00000" fill-opacity="0.15"></path>
        <path d="M43.642 75.601C43.8617 75.6965 44.0986 75.7459 44.3382 75.7462C45.0499 75.7445 45.6907 75.3139 45.9606 74.6554L47.3846 71.2142C49.117 71.4509 50.8737 71.4484 52.6054 71.2068L54.0354 74.6512C54.2113 75.0842 54.5531 75.4289 54.9847 75.6084C55.4163 75.7878 55.9017 75.7872 56.3328 75.6066L62.2851 73.1387C62.7246 72.9582 63.0731 72.6085 63.2521 72.1683C63.4275 71.743 63.4231 71.2648 63.24 70.8427L61.8161 67.3932C63.2096 66.3378 64.4522 65.0967 65.5091 63.7044L68.9383 65.1237C69.3705 65.3105 69.8597 65.3156 70.2957 65.1378C70.7316 64.96 71.0778 64.6143 71.2561 64.1785L73.7274 58.2187C73.9053 57.789 73.9065 57.3065 73.7306 56.876C73.5551 56.4408 73.2109 56.0951 72.7765 55.9177L70.3352 54.9013L30.5577 54.5386L27.1917 55.926C26.3089 56.3052 25.8974 57.3257 26.2703 58.2112L28.7315 64.1821C28.9107 64.6104 29.2523 64.9502 29.6814 65.1273C30.1108 65.3085 30.5951 65.3093 31.0251 65.1296L34.4774 63.7038C35.5362 65.0971 36.779 66.3403 38.1718 67.3996L36.7564 70.8212C36.5664 71.2487 36.5587 71.735 36.7351 72.1682C36.9137 72.6072 37.2609 72.9563 37.6989 73.1371L43.642 75.601Z" stroke="#B00000" stroke-width="3"></path>
        <path d="M69.4716 55.2471H69.4708H33.8489C27.8572 55.2471 23 50.3898 23 44.3981C23 38.4064 27.8572 33.5492 33.8489 33.5492C33.9245 33.5492 33.992 33.5497 34.055 33.5511L35.0616 33.574L35.4641 32.6512C37.4908 28.0042 42.0787 25 47.1484 25C52.2182 25 56.806 28.0042 58.8328 32.6512L59.2159 33.5295L60.1739 33.5511C63.8845 33.6348 67.2019 35.885 68.6517 39.3017L69.014 40.1557L69.9399 40.213C73.9981 40.4638 77.1229 43.8932 76.9963 47.9571C76.8697 52.021 73.5375 55.2493 69.4716 55.2471Z" stroke="#B00000" stroke-width="3"></path>
        <path d="M49.9961 65.5468H49.9981C55.998 65.523 61.37 61.824 63.5326 56.2274C63.6898 55.8261 63.6197 55.3713 63.3489 55.0359C63.078 54.7004 62.6479 54.5361 62.2223 54.6055C61.797 54.6748 61.4416 54.9668 61.2911 55.3705C59.5028 60.0534 55.01 63.1471 49.9971 63.1471C44.9842 63.1471 40.4914 60.0534 38.7031 55.3704C38.5526 54.9668 38.1972 54.6748 37.7719 54.6055C37.3463 54.5361 36.9162 54.7004 36.6453 55.0359C36.3745 55.3713 36.3044 55.8261 36.4616 56.2273C38.6242 61.824 43.9962 65.523 49.9961 65.5468Z" fill="#B00000" stroke="#B00000" stroke-width="0.5"></path>
    </symbol>
    <symbol fill="none" xmlns="http://www.w3.org/2000/svg" viewBox="0 0 100 100" id="whyUsSertificate">
        <path d="M49.9009 100C77.2417 100 99.4058 77.6142 99.4058 50C99.4058 22.3858 77.2417 0 49.9009 0C22.5601 0 0.395943 22.3858 0.395943 50C0.395943 77.6142 22.5601 100 49.9009 100Z" fill="#B00000" fill-opacity="0.15"></path>
        <path d="M74.7453 62.5393V64.0078C74.7453 64.9947 74.3572 65.9411 73.6663 66.6389C72.9754 67.3367 72.0383 67.7288 71.0613 67.7288H26.8521C25.875 67.7288 24.9379 67.3367 24.247 66.6389C23.5561 65.9411 23.168 64.9947 23.168 64.0078V36.7209C23.168 35.7341 23.5561 34.7876 24.247 34.0898C24.9379 33.392 25.875 33 26.8521 33H71.0613C72.0383 33 72.9754 33.392 73.6663 34.0898C74.3572 34.7876 74.7453 35.7341 74.7453 36.7209V42.7489" stroke="#B00000" stroke-width="3" stroke-linecap="round" stroke-linejoin="round"></path>
        <path d="M68.7549 43.2324V47.3862" stroke="#B00000" stroke-width="3" stroke-miterlimit="10" stroke-linecap="round" stroke-linejoin="round"></path>
        <path d="M68.7549 57.0786V61.2324" stroke="#B00000" stroke-width="3" stroke-miterlimit="10" stroke-linecap="round" stroke-linejoin="round"></path>
        <path d="M76.0996 47.8906L72.6869 49.8386" stroke="#B00000" stroke-width="3" stroke-miterlimit="10" stroke-linecap="round" stroke-linejoin="round"></path>
        <path d="M64.8227 54.624L61.4101 56.572" stroke="#B00000" stroke-width="3" stroke-miterlimit="10" stroke-linecap="round" stroke-linejoin="round"></path>
        <path d="M61.4101 47.892L64.8225 49.8405" stroke="#B00000" stroke-width="3" stroke-miterlimit="10" stroke-linecap="round" stroke-linejoin="round"></path>
        <path d="M72.6877 54.6263L76.1 56.5748" stroke="#B00000" stroke-width="3" stroke-miterlimit="10" stroke-linecap="round" stroke-linejoin="round"></path>
        <path d="M30.4926 57.7303L38.221 49.9247L43.8969 55.6574L55.7538 43.682" stroke="#B00000" stroke-width="3" stroke-miterlimit="10" stroke-linecap="round" stroke-linejoin="round"></path>
    </symbol>
    <symbol fill="none" xmlns="http://www.w3.org/2000/svg" viewBox="0 0 100 100" id="whyUsSupport">
        <path d="M50 100C77.6142 100 100 77.6142 100 50C100 22.3858 77.6142 0 50 0C22.3858 0 0 22.3858 0 50C0 77.6142 22.3858 100 50 100Z" fill="#B00000" fill-opacity="0.15"></path>
        <path d="M26.5886 45.8496H23.8001C23.3227 45.8496 22.8648 46.0533 22.5271 46.416C22.1896 46.7787 21.9999 47.2706 21.9999 47.7834V55.54C21.9999 56.0528 22.1896 56.5447 22.5271 56.9074C22.8648 57.27 23.3227 57.4738 23.8001 57.4738H26.5886" stroke="#B00000" stroke-width="3.11405" stroke-linecap="round"></path>
        <path d="M74.2335 45.8496H76.1984C76.6759 45.8496 77.1338 46.0533 77.4714 46.416C77.809 46.7787 77.9987 47.2706 77.9987 47.7834V55.54C77.9987 56.0528 77.809 56.5447 77.4714 56.9074C77.1338 57.27 76.6759 57.4738 76.1984 57.4738H73.41" stroke="#B00000" stroke-width="3.11405" stroke-linecap="round"></path>
        <path d="M60.4351 70.5232H64.0941C68.2252 67.5176 71.2927 63.2702 72.8508 58.3979C74.4089 53.5255 74.3764 48.2822 72.7582 43.4296C71.14 38.577 68.0202 34.368 63.8522 31.4141C59.6842 28.4601 54.6851 26.9151 49.5811 27.0036C44.4773 27.092 39.5344 28.8093 35.4708 31.9059C31.4072 35.0025 28.4344 39.3171 26.9846 44.2229C25.5346 49.1286 25.6831 54.3699 27.4082 59.1853C29.1335 64.0008 32.3455 68.1394 36.5779 71" stroke="#B00000" stroke-width="3" stroke-linecap="round"></path>
        <path d="M57.5829 72.8249H47.9115C47.4052 72.8227 46.9204 72.6166 46.5623 72.2516C46.2044 71.8866 46.0023 71.3922 46.0001 70.876V70.6218C46.0026 70.1057 46.2047 69.6114 46.5626 69.2465C46.9206 68.8815 47.4053 68.6754 47.9115 68.6729H57.5829C58.0892 68.6751 58.5741 68.8811 58.9321 69.2462C59.2901 69.6112 59.4921 70.1056 59.4944 70.6218V70.876C59.4923 71.3923 59.2904 71.8869 58.9324 72.2519C58.5744 72.617 58.0893 72.823 57.5829 72.8249Z" stroke="#B00000" stroke-width="3" stroke-linecap="round"></path>
        <path d="M35.1866 55.8622H41.4311V54.3537H37.7528V54.294L39.0317 53.0454C40.8324 51.4091 41.3157 50.5909 41.3157 49.598C41.3157 48.0852 40.0753 47.0156 38.1977 47.0156C36.3585 47.0156 35.0967 48.1108 35.101 49.8239H36.8588C36.8546 48.9886 37.385 48.4773 38.1848 48.4773C38.9547 48.4773 39.5278 48.9545 39.5278 49.7216C39.5278 50.4162 39.1001 50.8935 38.3046 51.6562L35.1866 54.5327V55.8622ZM42.4523 54.3281H46.6568V55.8622H48.4275V54.3281H49.5139V52.8494H48.4275V47.1349H46.1093L42.4523 52.875V54.3281ZM46.691 52.8494H44.3172V52.7812L46.6226 49.1463H46.691V52.8494ZM56.1242 54.652L57.2491 53.5312L55.2559 51.5497L57.2491 49.5682L56.1242 48.4389L54.1311 50.4247L52.1336 48.4389L51.0131 49.5682L53.0019 51.5497L51.0131 53.5312L52.1336 54.652L54.1311 52.6662L56.1242 54.652ZM59.2808 55.8622H61.1926L64.8283 48.6648V47.1349H58.682V48.6435H62.9121V48.7031L59.2808 55.8622Z" fill="#B00000"></path>
    </symbol>
    <symbol fill="none" xmlns="http://www.w3.org/2000/svg" viewBox="0 0 101 100" id="whyUsUptime">
        <path d="M50.3999 100C78.0141 100 100.4 77.6142 100.4 50C100.4 22.3858 78.0141 0 50.3999 0C22.7857 0 0.399902 22.3858 0.399902 50C0.399902 77.6142 22.7857 100 50.3999 100Z" fill="#B00000" fill-opacity="0.15"></path>
        <path d="M36.2998 23.8868C42.5845 20.5497 49.8769 19.6398 56.789 21.3301C63.7011 23.0205 69.7504 27.1933 73.7858 33.0542C77.8211 38.9151 79.5608 46.0552 78.6736 53.1155C77.7865 60.1757 74.3345 66.6634 68.9747 71.3439C63.6148 76.0243 56.7212 78.5707 49.6057 78.4985C42.4903 78.4263 35.6497 75.7406 30.3859 70.9524C25.1221 66.1642 21.8024 59.6078 21.0587 52.531C20.315 45.4541 22.1992 38.3509 26.3526 32.573" stroke="#B00000" stroke-width="3" stroke-linecap="round" stroke-linejoin="round"></path>
        <path d="M34.8775 24.1659L36.822 19.9624" stroke="#B00000" stroke-width="2" stroke-linecap="round" stroke-linejoin="round"></path>
        <path d="M34.876 23.874L38.9885 25.5302" stroke="#B00000" stroke-width="2" stroke-linecap="round" stroke-linejoin="round"></path>
        <path d="M49.8998 72.1268C62.3963 72.1268 72.5267 61.9964 72.5267 49.4999C72.5267 37.0035 62.3963 26.873 49.8998 26.873C37.4033 26.873 27.2729 37.0035 27.2729 49.4999C27.2729 61.9964 37.4033 72.1268 49.8998 72.1268Z" stroke="#B00000" stroke-width="3"></path>
        <path d="M49.8999 30.4521H49.8999C49.1986 30.4521 48.6301 31.0207 48.6301 31.722V33.4151C48.6301 34.1164 49.1986 34.6849 49.8999 34.6849H49.8999C50.6012 34.6849 51.1698 34.1164 51.1698 33.4151V31.722C51.1698 31.0207 50.6012 30.4521 49.8999 30.4521Z" fill="#B00000"></path>
        <path d="M49.9005 64.3145H49.9004C49.1991 64.3145 48.6306 64.883 48.6306 65.5843V67.2774C48.6306 67.9787 49.1991 68.5472 49.9004 68.5472H49.9005C50.6018 68.5472 51.1703 67.9787 51.1703 67.2774V65.5843C51.1703 64.883 50.6018 64.3145 49.9005 64.3145Z" fill="#B00000"></path>
        <path d="M68.9473 49.4998V49.4998C68.9473 48.7985 68.3788 48.23 67.6775 48.23H65.9843C65.283 48.23 64.7145 48.7985 64.7145 49.4998V49.4998C64.7145 50.2011 65.283 50.7696 65.9843 50.7696H67.6775C68.3788 50.7696 68.9473 50.2011 68.9473 49.4998Z" fill="#B00000"></path>
        <path d="M35.0852 49.4998V49.4998C35.0852 48.7985 34.5167 48.23 33.8154 48.23H32.1223C31.4209 48.23 30.8524 48.7985 30.8524 49.4998V49.4998C30.8524 50.2011 31.4209 50.7696 32.1223 50.7696H33.8154C34.5167 50.7696 35.0852 50.2011 35.0852 49.4998Z" fill="#B00000"></path>
        <path d="M43.3008 49.6328L47.9813 54.1822L57.6997 44.7361" stroke="#B00000" stroke-width="3" stroke-linecap="round" stroke-linejoin="round"></path>
    </symbol>
    <symbol fill="none" xmlns="http://www.w3.org/2000/svg" viewBox="0 0 18 13" id="pricingCheck">
        <path d="M6.99301 12.421L0.286011 5.58L1.71401 4.18L7.00701 9.579L16.293 0.292999L17.707 1.707L6.99301 12.421Z" fill="black"></path>
    </symbol>
    <symbol fill="none" xmlns="http://www.w3.org/2000/svg" viewBox="0 0 143 120" id="testimonialsQuoteMarkRed">
        <path fill-rule="evenodd" clip-rule="evenodd" d="M142.373 18.7419C121.049 29.1541 110.387 41.3882 110.387 55.4447C119.476 56.4859 126.992 60.1735 132.934 66.5076C138.877 72.8417 141.849 80.1735 141.849 88.5033C141.849 97.3536 138.965 104.816 133.197 110.889C127.428 116.963 120.175 120 111.435 120C101.647 120 93.1701 116.052 86.0037 108.156C78.8374 100.26 75.2542 90.6725 75.2542 79.3926C75.2542 45.553 94.306 19.089 132.41 0L142.373 18.7419ZM67.1186 18.7419C45.6196 29.1541 34.8702 41.3882 34.8702 55.4447C44.134 56.4859 51.7373 60.1735 57.6801 66.5076C63.6229 72.8417 66.5943 80.1735 66.5943 88.5033C66.5943 97.3536 63.6666 104.816 57.8112 110.889C51.9557 116.963 44.6584 120 35.919 120C26.1308 120 17.6973 116.052 10.6184 108.156C3.53942 100.26 0 90.6725 0 79.3926C0 45.553 18.9643 19.089 56.8935 0L67.1186 18.7419Z" fill="#B00000"></path>
    </symbol>
    <symbol fill="none" xmlns="http://www.w3.org/2000/svg" viewBox="0 0 16 14" id="testimonialsQuoteMarkBlue">
        <path fill-rule="evenodd" clip-rule="evenodd" d="M15.9298 2.18655C13.5439 3.40131 12.351 4.82863 12.351 6.46855C13.3679 6.59002 14.2088 7.02024 14.8738 7.75922C15.5387 8.4982 15.8712 9.35357 15.8712 10.3254C15.8712 11.3579 15.5485 12.2285 14.9031 12.9371C14.2577 13.6457 13.4461 14 12.4683 14C11.3731 14 10.4246 13.5394 9.62279 12.6182C8.82096 11.697 8.42005 10.5785 8.42005 9.26247C8.42005 5.31451 10.5517 2.22705 14.8151 0L15.9298 2.18655ZM7.50978 2.18655C5.10429 3.40131 3.90156 4.82863 3.90156 6.46855C4.93808 6.59002 5.78878 7.02024 6.45372 7.75922C7.11865 8.4982 7.45111 9.35357 7.45111 10.3254C7.45111 11.3579 7.12354 12.2285 6.46838 12.9371C5.81323 13.6457 4.99675 14 4.0189 14C2.92372 14 1.98012 13.5394 1.18807 12.6182C0.39602 11.697 0 10.5785 0 9.26247C0 5.31451 2.12188 2.22705 6.36571 0L7.50978 2.18655Z" fill="#2EC5CE"></path>
    </symbol>
    <symbol xmlns="http://www.w3.org/2000/svg" viewBox="0 0 23 23" id="cta">
        <path d="M19.1611 3.74121C17.1152 1.69043 14.3906 0.5625 11.4951 0.5625C5.51855 0.5625 0.655273 5.42578 0.655273 11.4023C0.655273 13.3115 1.15332 15.1768 2.10059 16.8223L0.5625 22.4375L6.30957 20.9287C7.8916 21.793 9.67383 22.2471 11.4902 22.2471H11.4951C17.4668 22.2471 22.4375 17.3838 22.4375 11.4072C22.4375 8.51172 21.207 5.79199 19.1611 3.74121ZM11.4951 20.4209C9.87402 20.4209 8.28711 19.9863 6.90527 19.166L6.57812 18.9707L3.16992 19.8643L4.07812 16.5391L3.86328 16.1973C2.95996 14.7617 2.48633 13.1064 2.48633 11.4023C2.48633 6.43652 6.5293 2.39355 11.5 2.39355C13.9072 2.39355 16.168 3.33105 17.8672 5.03516C19.5664 6.73926 20.6113 9 20.6064 11.4072C20.6064 16.3779 16.4609 20.4209 11.4951 20.4209ZM16.4365 13.6729C16.168 13.5361 14.835 12.8818 14.5859 12.7939C14.3369 12.7012 14.1563 12.6572 13.9756 12.9307C13.7949 13.2041 13.2773 13.8096 13.1162 13.9951C12.96 14.1758 12.7988 14.2002 12.5303 14.0635C10.9385 13.2676 9.89355 12.6426 8.84375 10.8408C8.56543 10.3623 9.12207 10.3965 9.63965 9.36133C9.72754 9.18066 9.68359 9.02441 9.61523 8.8877C9.54688 8.75098 9.00488 7.41797 8.78027 6.87598C8.56055 6.34863 8.33594 6.42188 8.16992 6.41211C8.01367 6.40234 7.83301 6.40234 7.65234 6.40234C7.47168 6.40234 7.17871 6.4707 6.92969 6.73926C6.68066 7.0127 5.98242 7.66699 5.98242 9C5.98242 10.333 6.9541 11.6221 7.08594 11.8027C7.22266 11.9834 8.99512 14.7178 11.7148 15.8945C13.4336 16.6367 14.1074 16.7002 14.9668 16.5732C15.4893 16.4951 16.5684 15.9189 16.793 15.2842C17.0176 14.6494 17.0176 14.1074 16.9492 13.9951C16.8857 13.873 16.7051 13.8047 16.4365 13.6729Z"></path>
    </symbol>
</svg>