<svg width="100" height="100" viewBox="0 0 100 100" fill="none" xmlns="http://www.w3.org/2000/svg">
<path d="M49.9009 100C77.2417 100 99.4058 77.6142 99.4058 50C99.4058 22.3858 77.2417 0 49.9009 0C22.5601 0 0.395943 22.3858 0.395943 50C0.395943 77.6142 22.5601 100 49.9009 100Z" fill="#B00000" fill-opacity="0.15"/>
<path d="M74.7453 62.5393V64.0078C74.7453 64.9947 74.3572 65.9411 73.6663 66.6389C72.9754 67.3367 72.0383 67.7288 71.0613 67.7288H26.8521C25.875 67.7288 24.9379 67.3367 24.247 66.6389C23.5561 65.9411 23.168 64.9947 23.168 64.0078V36.7209C23.168 35.7341 23.5561 34.7876 24.247 34.0898C24.9379 33.392 25.875 33 26.8521 33H71.0613C72.0383 33 72.9754 33.392 73.6663 34.0898C74.3572 34.7876 74.7453 35.7341 74.7453 36.7209V42.7489" stroke="#B00000" stroke-width="3" stroke-linecap="round" stroke-linejoin="round"/>
<path d="M68.7549 43.2324V47.3862" stroke="#B00000" stroke-width="3" stroke-miterlimit="10" stroke-linecap="round" stroke-linejoin="round"/>
<path d="M68.7549 57.0786V61.2324" stroke="#B00000" stroke-width="3" stroke-miterlimit="10" stroke-linecap="round" stroke-linejoin="round"/>
<path d="M76.0996 47.8906L72.6869 49.8386" stroke="#B00000" stroke-width="3" stroke-miterlimit="10" stroke-linecap="round" stroke-linejoin="round"/>
<path d="M64.8227 54.624L61.4101 56.572" stroke="#B00000" stroke-width="3" stroke-miterlimit="10" stroke-linecap="round" stroke-linejoin="round"/>
<path d="M61.4101 47.892L64.8225 49.8405" stroke="#B00000" stroke-width="3" stroke-miterlimit="10" stroke-linecap="round" stroke-linejoin="round"/>
<path d="M72.6877 54.6263L76.1 56.5748" stroke="#B00000" stroke-width="3" stroke-miterlimit="10" stroke-linecap="round" stroke-linejoin="round"/>
<path d="M30.4926 57.7303L38.221 49.9247L43.8969 55.6574L55.7538 43.682" stroke="#B00000" stroke-width="3" stroke-miterlimit="10" stroke-linecap="round" stroke-linejoin="round"/>
</svg>
