<svg width="100" height="100" viewBox="0 0 100 100" fill="none" xmlns="http://www.w3.org/2000/svg">
<path d="M50 100C77.6142 100 100 77.6142 100 50C100 22.3858 77.6142 0 50 0C22.3858 0 0 22.3858 0 50C0 77.6142 22.3858 100 50 100Z" fill="#B00000" fill-opacity="0.15"/>
<path d="M26.5886 45.8496H23.8001C23.3227 45.8496 22.8648 46.0533 22.5271 46.416C22.1896 46.7787 21.9999 47.2706 21.9999 47.7834V55.54C21.9999 56.0528 22.1896 56.5447 22.5271 56.9074C22.8648 57.27 23.3227 57.4738 23.8001 57.4738H26.5886" stroke="#B00000" stroke-width="3.11405" stroke-linecap="round"/>
<path d="M74.2335 45.8496H76.1984C76.6759 45.8496 77.1338 46.0533 77.4714 46.416C77.809 46.7787 77.9987 47.2706 77.9987 47.7834V55.54C77.9987 56.0528 77.809 56.5447 77.4714 56.9074C77.1338 57.27 76.6759 57.4738 76.1984 57.4738H73.41" stroke="#B00000" stroke-width="3.11405" stroke-linecap="round"/>
<path d="M60.4351 70.5232H64.0941C68.2252 67.5176 71.2927 63.2702 72.8508 58.3979C74.4089 53.5255 74.3764 48.2822 72.7582 43.4296C71.14 38.577 68.0202 34.368 63.8522 31.4141C59.6842 28.4601 54.6851 26.9151 49.5811 27.0036C44.4773 27.092 39.5344 28.8093 35.4708 31.9059C31.4072 35.0025 28.4344 39.3171 26.9846 44.2229C25.5346 49.1286 25.6831 54.3699 27.4082 59.1853C29.1335 64.0008 32.3455 68.1394 36.5779 71" stroke="#B00000" stroke-width="3" stroke-linecap="round"/>
<path d="M57.5829 72.8249H47.9115C47.4052 72.8227 46.9204 72.6166 46.5623 72.2516C46.2044 71.8866 46.0023 71.3922 46.0001 70.876V70.6218C46.0026 70.1057 46.2047 69.6114 46.5626 69.2465C46.9206 68.8815 47.4053 68.6754 47.9115 68.6729H57.5829C58.0892 68.6751 58.5741 68.8811 58.9321 69.2462C59.2901 69.6112 59.4921 70.1056 59.4944 70.6218V70.876C59.4923 71.3923 59.2904 71.8869 58.9324 72.2519C58.5744 72.617 58.0893 72.823 57.5829 72.8249Z" stroke="#B00000" stroke-width="3" stroke-linecap="round"/>
<path d="M35.1866 55.8622H41.4311V54.3537H37.7528V54.294L39.0317 53.0454C40.8324 51.4091 41.3157 50.5909 41.3157 49.598C41.3157 48.0852 40.0753 47.0156 38.1977 47.0156C36.3585 47.0156 35.0967 48.1108 35.101 49.8239H36.8588C36.8546 48.9886 37.385 48.4773 38.1848 48.4773C38.9547 48.4773 39.5278 48.9545 39.5278 49.7216C39.5278 50.4162 39.1001 50.8935 38.3046 51.6562L35.1866 54.5327V55.8622ZM42.4523 54.3281H46.6568V55.8622H48.4275V54.3281H49.5139V52.8494H48.4275V47.1349H46.1093L42.4523 52.875V54.3281ZM46.691 52.8494H44.3172V52.7812L46.6226 49.1463H46.691V52.8494ZM56.1242 54.652L57.2491 53.5312L55.2559 51.5497L57.2491 49.5682L56.1242 48.4389L54.1311 50.4247L52.1336 48.4389L51.0131 49.5682L53.0019 51.5497L51.0131 53.5312L52.1336 54.652L54.1311 52.6662L56.1242 54.652ZM59.2808 55.8622H61.1926L64.8283 48.6648V47.1349H58.682V48.6435H62.9121V48.7031L59.2808 55.8622Z" fill="#B00000"/>
</svg>
